
<svg width="1571" height="auto" viewBox="0 0 1571 756" fill="none" xmlns="http://www.w3.org/2000/svg">
    <g clip-path="url(#clip0_24_5)">
        <path d="M-186 76L-115.233 126.292C-44.4667 177.528 97.0667 276.694 238.6 290.153C380.133 302.667 521.667 227.111 663.2 176.819C804.733 125.583 946.267 101.972 1087.8 139.042C1229.33 177.528 1370.87 276.694 1512.4 327.931C1653.93 378.222 1795.47 378.222 1866.23 378.222H1937V756H1866.23C1795.47 756 1653.93 756 1512.4 756C1370.87 756 1229.33 756 1087.8 756C946.267 756 804.733 756 663.2 756C521.667 756 380.133 756 238.6 756C97.0667 756 -44.4667 756 -115.233 756H-186V76Z" fill="black"/>
    </g>
    <defs>
        <clipPath id="clip0_24_5">
            <rect width="1571" height="756" fill="white"/>
        </clipPath>
    </defs>
</svg>
